<svg version="1.1" viewBox="0 0 666.67 496.81" xmlns="http://www.w3.org/2000/svg">
 <defs>
  <clipPath id="clipPath4112">
   <path d="m251.77 201.13c-2.405 0.083-4.965 0.3-7.608 0.645-9.154 1.191-16.237 3.508-21.053 6.887-4.751 3.332-8.347 7.716-10.992 13.406l-0.05 0.103c-1.922 4.023-3.178 9.754-3.734 17.028-0.605 7.888-0.296 16.67 0.918 26.103 3.569 27.721 10.941 39.287 16.497 44.107 6.478 5.62 15.221 8.161 26.73 7.766 2.358-0.08 4.855-0.291 7.421-0.625 7.387-0.962 13.231-2.597 17.371-4.857 4.009-2.192 7.141-4.711 9.309-7.486 2.404-3.076 4.205-6.194 5.354-9.268 1.223-3.271 2.086-7.16 2.566-11.558 1.065-9.309 0.96399-18.954-0.29301-28.722-2.773-21.539-8.13-36.673-15.92-44.981-5.779-6.165-14.452-8.961-26.514-8.548h-2e-3" fill="#17282f"/>
  </clipPath>
  <clipPath id="clipPath4116">
   <path d="m251.77 201.13c-2.405 0.083-4.965 0.3-7.608 0.645-9.154 1.191-16.237 3.508-21.053 6.887-4.751 3.332-8.347 7.716-10.992 13.406l-0.05 0.103c-1.922 4.023-3.178 9.754-3.734 17.028-0.605 7.888-0.296 16.67 0.918 26.103 3.569 27.721 10.941 39.287 16.497 44.107 6.478 5.62 15.221 8.161 26.73 7.766 2.358-0.08 4.855-0.291 7.421-0.625 7.387-0.962 13.231-2.597 17.371-4.857 4.009-2.192 7.141-4.711 9.309-7.486 2.404-3.076 4.205-6.194 5.354-9.268 1.223-3.271 2.086-7.16 2.566-11.558 1.065-9.309 0.96399-18.954-0.29301-28.722-2.773-21.539-8.13-36.673-15.92-44.981-5.779-6.165-14.452-8.961-26.514-8.548h-2e-3" fill="#17282f"/>
  </clipPath>
 </defs>
 <g transform="matrix(1.3333 0 0 -1.3333 0 496.81)">
  <g fill="#e7e8e5">
   <path d="m0 44.913h500v0.25h-500z"/>
   <path d="m428.22 29.067h21.679v-0.25h-21.679v0.25"/>
   <path d="m310.56 34.006h34.109v0.25h-34.109z"/>
   <path d="m396.59 38.354h44.525v-0.25h-44.525v0.25"/>
   <path d="m173.01 33.062h-11.137v0.25h11.137v-0.25"/>
   <path d="m114.58 33.062h38.388v0.25h-38.388z"/>
   <path d="m94.002 37.284h-27.695v0.25h27.695v-0.25"/>
   <path d="m43.915 372.36c-3.0093 0-5.4578-2.449-5.4578-5.457v-271.43c0-3.0097 2.4485-5.4578 5.4578-5.4578h193.1c3.008 0 5.457 2.4481 5.457 5.4578v271.43c0 3.008-2.449 5.457-5.457 5.457zm193.1-282.6h-193.1c-3.1472 0-5.7078 2.5598-5.7078 5.7078v271.43c0 3.146 2.5606 5.707 5.7078 5.707h193.1c3.146 0 5.707-2.561 5.707-5.707v-271.43c0-3.148-2.561-5.7078-5.707-5.7078"/>
   <path d="m260.21 372.36c-3.009 0-5.457-2.449-5.457-5.457v-271.43c0-3.0097 2.448-5.4578 5.457-5.4578h193.1c3.009 0 5.458 2.4481 5.458 5.4578v271.43c0 3.008-2.449 5.457-5.458 5.457h-193.1m193.1-282.6h-193.1c-3.147 0-5.707 2.5598-5.707 5.7078v271.43c0 3.146 2.56 5.707 5.707 5.707h193.1c3.147 0 5.708-2.561 5.708-5.707v-271.43c0-3.148-2.561-5.7078-5.708-5.7078"/>
   <path d="m127.28 184.11c-28.778 0.987-51.313 25.121-50.327 53.9 0.9875 28.812 25.121 51.345 53.899 50.36 28.778-0.986 51.314-25.119 50.326-53.931-0.986-28.78-25.12-51.314-53.898-50.329zm88.797 42.572 0.45 13.14-8.068 2.636c-0.332 4.49-1.082 8.924-2.151 13.196l6.838 5.042-4.645 12.343-8.458-0.681c-2.016 3.992-4.385 7.788-7.041 11.35l4.382 7.313-9.009 9.611-7.561-3.872c-3.406 2.894-6.997 5.517-10.84 7.835l1.225 8.393-11.998 5.446-5.497-6.443c-4.188 1.359-8.527 2.375-13.016 3.049l-2.045 8.229-13.175 0.451-2.602-8.068c-4.526-0.366-8.924-1.084-13.196-2.152l-5.078 6.805-12.342-4.612 0.6824-8.459c-3.9922-2.049-7.7879-4.418-11.35-7.074l-7.2781 4.38-9.6457-8.972 3.8711-7.595c-2.8926-3.372-5.516-6.998-7.8008-10.842l-8.3918 1.259-5.4789-11.995 6.4762-5.499c-1.3578-4.189-2.4109-8.562-3.0492-13.018l-8.2637-2.076-0.4504-13.142 8.102-2.638c0.3308-4.524 1.0832-8.924 2.1515-13.195l-6.8371-5.042 4.6449-12.345 8.4582 0.684c2.0161-3.991 4.3852-7.788 7.0403-11.351l-4.3821-7.312 9.009-9.612 7.561 3.873c3.3722-2.894 6.9968-5.518 10.84-7.836l-1.2598-8.391 11.998-5.445 5.5322 6.441c4.188-1.359 8.527-2.376 13.017-3.05l2.044-8.227 13.175-0.452 2.603 8.069c4.525 0.365 8.923 1.082 13.195 2.151l5.043-6.803 12.342 4.611-0.647 8.456c3.993 2.05 7.754 4.421 11.35 7.076l7.279-4.382 9.645 8.974-3.87 7.595c2.892 3.373 5.516 6.998 7.8 10.842l8.392-1.26 5.479 11.997-6.477 5.498c1.359 4.187 2.41 8.526 3.049 13.017l8.23 2.079"/>
   <path d="m417.34 289.27c-2.438 2.611-2.298 6.705 0.313 9.143 2.615 2.442 6.709 2.301 9.147-0.31 2.439-2.612 2.298-6.705-0.316-9.147-2.611-2.438-6.706-2.298-9.144 0.314zm23.616-19.131 3.314 3.095-1.324 2.609c1.014 1.176 1.912 2.44 2.693 3.742l2.897-0.437 1.877 4.142-2.229 1.897c0.482 1.463 0.83 2.967 1.051 4.483l2.852 0.716 0.147 4.54-2.788 0.899c-0.125 1.536-0.361 3.051-0.733 4.554l2.346 1.748-1.598 4.253-2.912-0.23c-0.69 1.352-1.5 2.659-2.43 3.918l1.508 2.504-3.103 3.324-2.602-1.334c-1.193 1.014-2.44 1.912-3.742 2.693l0.421 2.897-4.134 1.886-1.896-2.229c-1.474 0.473-2.977 0.821-4.493 1.043l-0.707 2.843-4.54 0.164-0.908-2.796c-1.528-0.118-3.051-0.362-4.546-0.742l-1.739 2.353-4.261-1.589 0.238-2.92c-1.352-0.69-2.675-1.5-3.918-2.431l-2.521 1.509-3.314-3.095 1.332-2.619c-1.022-1.183-1.912-2.44-2.693-3.742l-2.897 0.439-1.877-4.144 2.229-1.895c-0.481-1.465-0.83-2.969-1.051-4.485l-2.851-0.714-0.148-4.542 2.789-0.898c0.116-1.528 0.36-3.052 0.732-4.555l-2.353-1.738 1.598-4.254 2.919 0.222c0.69-1.353 1.5-2.659 2.431-3.917l-1.508-2.505 3.102-3.323 2.603 1.333c1.192-1.015 2.439-1.912 3.742-2.693l-0.43-2.889 4.135-1.885 1.904 2.22c1.473-0.474 2.969-0.813 4.493-1.042l0.706-2.844 4.54-0.163 0.909 2.796c1.527 0.116 3.051 0.36 4.545 0.741l1.739-2.354 4.262 1.589-0.239 2.921c1.352 0.69 2.667 1.491 3.918 2.43l2.513-1.499"/>
   <path d="m251.54 101.84c-13.654 0.468-24.32 11.931-23.853 25.546 0.467 13.654 11.891 24.321 25.545 23.854 13.655-0.468 24.322-11.892 23.854-25.546-0.466-13.616-11.892-24.322-25.546-23.854m68.452 33.39-10.341 7.141-6e-3 0.025c-1.022 3.756-2.434 7.373-4.159 10.771l2.65 10.398-15 16.065-10.559-1.933c-3.269 1.951-6.779 3.605-10.454 4.882l-0.026 8e-3 -6.42 10.81-21.964 0.753-7.142-10.342-0.041-0.01c-3.753-1.022-7.365-2.431-10.76-4.153l-10.393 2.649-16.064-15.001 1.929-10.537-6e-3 -0.01c-1.992-3.306-3.607-6.817-4.884-10.493l-10.808-6.417-0.753-21.966 10.351-7.147c1.021-3.783 2.389-7.391 4.147-10.818l2e-3 -0.0043-2.642-10.367 15-16.062 10.493 1.9199c3.312-1.9578 6.826-3.6149 10.546-4.893l9e-3 -0.0027 6.409-10.794 21.965-0.7531 7.137 10.334c3.797 1.0223 7.415 2.432 10.851 4.159l3e-3 0.0019 10.346-2.6367 16.064 14.999-1.93 10.54c1.992 3.307 3.608 6.8188 4.885 10.495l1e-3 2e-3 10.812 6.421 0.752 21.966"/>
   <path d="m336.69 280.44c-14.698 0-26.9-11.695-27.407-26.496-0.518-15.118 11.36-27.838 26.479-28.357 7.325-0.245 14.311 2.368 19.668 7.377 5.353 5.004 8.439 11.788 8.69 19.101 0.517 15.119-11.361 27.84-26.479 28.359-0.318 0.011-0.636 0.016-0.951 0.016zm0.038-59.093c-0.37 0-0.739 7e-3 -1.111 0.019-17.446 0.598-31.153 15.278-30.555 32.723s15.301 31.148 32.723 30.556c17.446-0.598 31.153-15.278 30.555-32.724-0.289-8.44-3.85-16.269-10.026-22.042-5.911-5.525-13.54-8.532-21.586-8.532zm15.513 75.847h0.01zm-24.783-94.812 15.009-0.515 4.971 7.198c0.284 0.412 0.705 0.709 1.188 0.839 2.765 0.744 5.509 1.795 8.155 3.126l0.014 7e-3c0.441 0.217 0.955 0.284 1.458 0.153l7.039-1.792 10.976 10.249-1.313 7.173c-0.093 0.506 3e-3 1.029 0.268 1.47 1.448 2.403 2.676 5.039 3.651 7.834 0.16 0.496 0.499 0.913 0.94 1.173l7.523 4.468 0.515 15.009-7.204 4.975c-0.377 0.26-0.658 0.636-0.803 1.069l-0.049 0.169c-0.753 2.758-1.8 5.468-3.114 8.055-0.232 0.457-0.289 0.982-0.163 1.478l1.804 7.078-10.25 10.978-7.189-1.316c-0.504-0.093-1.023 2e-3 -1.462 0.264-2.5 1.492-5.14 2.724-7.846 3.666-0.153 0.052-0.308 0.123-0.441 0.205-0.292 0.179-0.535 0.426-0.709 0.72l-4.472 7.53-15.01 0.514-4.974-7.204c-0.296-0.429-0.74-0.731-1.243-0.852-2.777-0.761-5.478-1.805-8.054-3.113-0.457-0.231-0.983-0.29-1.477-0.163l-7.075 1.804-10.977-10.251 1.313-7.173c0.082-0.45 0.016-0.915-0.189-1.324l-0.095-0.17c-1.451-2.412-2.681-5.056-3.654-7.859-0.164-0.47-0.489-0.869-0.917-1.123l-7.528-4.47-0.514-15.009 7.21-4.979c0.411-0.284 0.708-0.705 0.838-1.187 0.777-2.876 1.824-5.606 3.11-8.117 0.074-0.144 0.132-0.296 0.171-0.454 0.085-0.339 0.085-0.695-2e-3 -1.033l-1.798-7.054 10.25-10.976 7.138 1.306c0.502 0.091 1.018-2e-3 1.455-0.26 2.545-1.505 5.198-2.737 7.887-3.665 0.486-0.154 0.907-0.482 1.175-0.934zm16.09-4.775h-0.072l-17.317 0.593c-0.719 0.025-1.376 0.414-1.743 1.032l-4.663 7.853c-2.479 0.899-4.922 2.033-7.282 3.378l-7.507-1.373c-0.709-0.134-1.432 0.109-1.923 0.636l-11.826 12.663c-0.491 0.526-0.68 1.265-0.503 1.963l1.888 7.41c-1.147 2.346-2.107 4.853-2.859 7.47l-7.531 5.201c-0.592 0.408-0.935 1.09-0.911 1.809l0.594 17.318c0.024 0.718 0.413 1.376 1.032 1.743l7.866 4.671c0.933 2.553 2.063 4.985 3.37 7.248l-1.38 7.533c-0.129 0.707 0.111 1.433 0.636 1.923l12.665 11.827c0.526 0.492 1.266 0.68 1.963 0.503l7.434-1.896c2.406 1.17 4.905 2.134 7.45 2.871l5.196 7.526c0.409 0.592 1.08 0.958 1.81 0.91l17.317-0.594c0.719-0.024 1.376-0.413 1.743-1.032l4.672-7.866c2.482-0.909 4.907-2.04 7.227-3.372l7.554 1.383c0.709 0.129 1.432-0.11 1.924-0.635l11.825-12.666c0.491-0.527 0.68-1.266 0.503-1.963l-1.895-7.437c1.171-2.407 2.134-4.905 2.871-7.447l7.525-5.196c0.592-0.408 0.935-1.091 0.911-1.81l-0.593-17.318c-0.025-0.719-0.414-1.376-1.033-1.743l-7.869-4.673c-0.932-2.553-2.062-4.984-3.366-7.243l1.379-7.536c0.13-0.707-0.11-1.433-0.636-1.923l-12.664-11.825c-0.526-0.492-1.264-0.681-1.963-0.502l-7.401 1.885c-2.44-1.177-4.952-2.14-7.488-2.87l-5.192-7.518c-0.395-0.572-1.045-0.911-1.738-0.911"/>
  </g>
  <path d="m383.44 322.24-7.174 1.927-1.926 7.173 2.809 2.808 2.963-6.136 6.137-2.963-2.809-2.809" fill="#dadbd8"/>
  <path d="m383.88 327.04c1.306 1.307 1.306 3.437-1e-3 4.744-1.306 1.306-3.427 1.297-4.734-9e-3l3.568 5.352 4.786-2.419 1.049-5.028-4.668-2.64" fill="#dadbd8"/>
  <path d="m386.13 329.28c1.307 1.308 1.307 3.438 0 4.745-1.307 1.306-3.427 1.296-4.734-0.01-1.307-1.307-1.307-3.418 0-4.725 1.307-1.306 3.427-1.316 4.734-0.01zm-9.545 4.298 5.257 5.257 7.173-1.926 1.926-7.173-5.256-5.258-7.174 1.927-1.926 7.173" fill="#ededeb"/>
  <path d="m90.221 130.85 3.8492 1.034 1.0336 3.848-1.507 1.507-1.5903-3.292-3.2925-1.591 1.507-1.506" fill="#dadbd8"/>
  <path d="m89.982 133.43c-0.7015 0.702-0.7015 1.844 0 2.546 0.7012 0.701 1.8391 0.696 2.5403-5e-3l-1.9145 2.872-2.5683-1.298-0.5625-2.698 2.505-1.417" fill="#dadbd8"/>
  <path d="m88.778 134.63c-0.7011 0.701-0.7011 1.844 4e-4 2.545 0.7012 0.701 1.8391 0.696 2.5403-5e-3 0.7011-0.701 0.7011-1.834 0-2.535-0.7012-0.701-1.8391-0.706-2.5407-5e-3zm5.1227 2.307-2.8211 2.82-3.8492-1.033-1.034-3.85 2.8211-2.821 3.8492 1.034 1.034 3.85" fill="#ededeb"/>
  <path d="m76.362 341.9 3.1949-3.196c0.8317-0.832 2.193-0.832 3.025 0 0.8317 0.832 0.8317 2.194 0 3.026l-3.1949 3.194c-0.832 0.832-2.1934 0.832-3.025 0-0.832-0.832-0.832-2.192 0-3.024" fill="#ededeb"/>
  <path d="m74.112 349.86c2.4621 0.883 5.1309-0.273 5.961-2.584 0.83-2.311-0.493-4.901-2.9551-5.785-2.4617-0.884-5.1305 0.272-5.9606 2.582-0.83 2.312 0.493 4.902 2.9547 5.787" fill="#dadbd8"/>
  <path d="m70.63 344.61 0.4633-1.289 9.507 3.414-0.4633 1.289-9.507-3.414" fill="#ededeb"/>
  <path d="m443.89 11.323c0-6.2539-86.806-11.323-193.89-11.323-107.08 0-193.89 5.0691-193.89 11.323 0 6.254 86.807 11.324 193.89 11.324 107.08 0 193.89-5.0699 193.89-11.324" fill="#f3f2f1"/>
  <g fill="#17282f">
   <path d="m95.06 308.77c0.6191-2.724 1.5699-4.566 2.8527-5.525 1.282-0.961 2.7945-1.241 4.5365-0.844 1.791 0.406 3.045 1.303 3.761 2.692 0.717 1.388 0.732 3.592 0.046 6.609-0.578 2.539-1.512 4.279-2.802 5.218-1.291 0.938-2.813 1.208-4.5669 0.809-1.6812-0.382-2.8953-1.285-3.6426-2.705-0.748-1.422-0.8097-3.506-0.1847-6.254zm-8.3442-1.858c-1.0011 4.403-0.5543 8.11 1.3418 11.123 1.8953 3.011 5.0336 5.014 9.4129 6.01 4.4897 1.02 8.2227 0.602 11.2-1.257 2.977-1.858 4.959-4.958 5.946-9.301 0.717-3.153 0.774-5.859 0.172-8.118s-1.779-4.179-3.529-5.757c-1.751-1.579-4.123-2.707-7.116-3.387-3.042-0.693-5.67-0.781-7.884-0.265-2.2137 0.516-4.1785 1.682-5.8945 3.499-1.7157 1.815-2.9321 4.3-3.6489 7.453"/>
   <path d="m126.1 311.94c0.395-1.742 1.041-2.95 1.936-3.625 0.895-0.673 1.876-0.888 2.944-0.646 1.079 0.246 1.872 0.859 2.378 1.838 0.507 0.98 0.553 2.377 0.141 4.191-0.385 1.694-1.022 2.875-1.909 3.544-0.888 0.669-1.847 0.887-2.877 0.653-1.092-0.248-1.898-0.874-2.418-1.876-0.521-1.001-0.586-2.362-0.195-4.079zm-7.504-1.725c-0.678 2.981-0.23 5.666 1.343 8.056 1.572 2.389 4.07 3.973 7.492 4.751 3.914 0.889 7.128 0.427 9.644-1.388 2.022-1.463 3.337-3.531 3.945-6.205 0.683-3.007 0.247-5.696-1.31-8.069s-4.096-3.959-7.617-4.759c-3.14-0.714-5.861-0.495-8.162 0.66-2.829 1.433-4.607 3.752-5.335 6.954"/>
   <path d="m152.19 317.85c0.351-1.546 0.937-2.619 1.757-3.22s1.727-0.787 2.721-0.562c0.871 0.199 1.519 0.723 1.945 1.575 0.425 0.851 0.443 2.135 0.053 3.853-0.36 1.583-0.931 2.675-1.713 3.278s-1.615 0.803-2.498 0.603c-0.957-0.218-1.669-0.775-2.137-1.666-0.468-0.894-0.511-2.181-0.128-3.861zm-3.609-18.858-6.133 26.977 7.011 1.594 0.656-2.888c0.694 1.433 1.396 2.457 2.108 3.071 0.961 0.824 2.104 1.388 3.429 1.689 2.613 0.594 4.861 0.053 6.744-1.62 1.884-1.675 3.161-3.985 3.83-6.929 0.739-3.251 0.524-5.909-0.645-7.975-1.169-2.065-2.943-3.369-5.323-3.91-1.153-0.262-2.25-0.305-3.29-0.128s-2.022 0.565-2.945 1.168l2.121-9.329-7.563-1.72"/>
   <path d="m169.44 317.26 7.275 2.389c0.507-0.813 1.08-1.347 1.719-1.603 0.638-0.254 1.418-0.278 2.338-0.069 1.005 0.23 1.736 0.621 2.19 1.175 0.357 0.416 0.481 0.863 0.372 1.341-0.122 0.539-0.499 0.892-1.13 1.057-0.452 0.116-1.584 0.129-3.395 0.04-2.704-0.139-4.606-0.129-5.706 0.026-1.1 0.158-2.101 0.615-3.003 1.377-0.901 0.761-1.486 1.732-1.754 2.908-0.292 1.287-0.17 2.48 0.366 3.582 0.537 1.101 1.409 2.032 2.617 2.789 1.208 0.758 2.916 1.388 5.124 1.89 2.332 0.53 4.092 0.742 5.284 0.64 1.191-0.104 2.242-0.446 3.154-1.025 0.913-0.58 1.759-1.451 2.54-2.616l-6.944-2.314c-0.326 0.585-0.737 0.974-1.233 1.171-0.679 0.259-1.435 0.295-2.269 0.104-0.846-0.192-1.428-0.482-1.747-0.87-0.318-0.388-0.429-0.797-0.331-1.226 0.108-0.477 0.436-0.783 0.983-0.916 0.546-0.134 1.663-0.111 3.352 0.067 2.554 0.283 4.496 0.312 5.824 0.086 1.329-0.226 2.421-0.733 3.277-1.517 0.856-0.785 1.41-1.735 1.664-2.851 0.256-1.127 0.165-2.301-0.273-3.522-0.439-1.221-1.32-2.313-2.642-3.278-1.322-0.963-3.247-1.734-5.774-2.309-3.57-0.811-6.228-0.879-7.974-0.206-1.747 0.674-3.048 1.901-3.904 3.68"/>
   <path d="m194.25 321.11 7.661 0.043 0.038-6.773-7.661-0.044zm-0.401 20.888 8.208 0.046 0.036-6.303-1.514-12.67-5.076-0.029-1.618 12.654-0.036 6.302"/>
   <path d="m109.27 279.81c-0.169-0.156-0.655-0.785-1.352-3.221-0.92-3.213-0.353-6.144 0.727-8.246 0.207 0.433 0.351 0.933 0.45 1.402 1.037 4.91 0.735 9.354 0.175 10.065zm6.586-3.151c-0.259-0.485-0.692-1.484-1.34-3.529-0.859-2.708-0.863-4.884-0.385-6.548l0.093 0.251c1.176 3.438 1.749 8.175 1.632 9.826zm7.172-4.213c-3e-3 0-0.566-4e-3 -1.827-2.346-1.447-2.685-1.815-4.895-1.128-6.757 0.084-0.228 0.184-0.45 0.301-0.67 0.534 0.228 0.991 0.6 1.321 1.104 1.4 2.141 2.071 6.538 1.55 8.257-0.107 0.352-0.216 0.412-0.217 0.412zm5.654-16.469-0.18 0.034c-4.501 1.743-7.194 3.446-8.593 5.492-1.016-0.204-2.153-0.069-3.232 0.444-1.048 0.498-2.056 1.369-2.78 2.622-0.676-0.52-1.51-0.663-2.426-0.375-1.016 0.32-2.073 1.175-2.952 2.411-0.559-0.404-1.132-0.464-1.552-0.429-2.973 0.242-7.0017 6.16-7.2908 12.466-0.0125 0.276 0.2008 0.51 0.4768 0.522 0.27 0.023 0.51-0.2 0.522-0.477 0.274-5.985 4.11-11.331 6.373-11.514 0.367-0.036 0.674 0.079 0.932 0.279-1.359 2.383-2.063 5.782-1.023 9.412 0.86 3.005 1.619 4.18 2.532 3.962 1.722-0.428 1.496-6.971 0.584-11.288-0.207-0.978-0.505-1.681-0.845-2.183 0.789-1.165 1.724-1.949 2.543-2.207 0.731-0.229 1.273-0.035 1.674 0.346-0.786 1.936-0.949 4.574 0.118 7.939 1.403 4.428 1.968 4.549 2.306 4.62 0.238 0.05 0.476-0.028 0.645-0.22 0.924-1.043-0.18-7.922-1.344-11.324-0.151-0.443-0.339-0.829-0.557-1.157 0.621-1.217 1.535-2.046 2.493-2.501 0.768-0.366 1.556-0.498 2.273-0.431-0.09 0.189-0.171 0.381-0.244 0.576-0.792 2.148-0.405 4.626 1.185 7.578 1.055 1.958 1.915 2.871 2.707 2.872h1e-3c0.236 0 0.675-0.087 0.987-0.662 0.872-1.609 0.24-6.919-1.483-9.554-0.406-0.621-0.967-1.091-1.618-1.398 1.34-1.762 3.884-3.314 7.949-4.89 0.257-0.099 0.385-0.388 0.285-0.646-0.076-0.198-0.266-0.319-0.466-0.319"/>
   <path d="m169.3 214.75c0.056-0.156 0.279-0.567 1.166-1.388 1.487-1.374 2.838-1.985 4.131-1.843 0.107 0.01 0.214 0.026 0.32 0.048-0.071 0.303-0.215 0.584-0.434 0.825-1.407 1.542-4.5 2.518-5.183 2.358zm-3.49-4.249c0.336-0.248 0.818-0.576 1.506-1.007 1.357-0.848 2.567-1.24 3.601-1.322-1.658 1.027-3.825 1.937-5.107 2.329zm0.888-6.935c-1.525 0-3.129 0.347-4.561 1.188-0.239 0.141-0.318 0.446-0.179 0.685 0.14 0.239 0.447 0.316 0.685 0.178 3.567-2.094 8.178-0.633 9.127 0.893 0.11 0.179 0.211 0.406 0.147 0.671-1.411-0.15-3.146 0.224-5.131 1.466-2.545 1.59-2.741 2.063-2.725 2.442 0.01 0.224 0.137 0.419 0.341 0.523 0.995 0.505 5.505-1.574 7.385-2.809 0.246-0.162 0.454-0.337 0.622-0.523 0.831 0.203 1.475 0.632 1.903 1.146 0.293 0.352 0.49 0.737 0.587 1.122l-0.2-0.024c-1.599-0.162-3.203 0.525-4.911 2.104-1.174 1.085-1.63 1.833-1.478 2.426 0.048 0.188 0.206 0.525 0.718 0.653 1.384 0.344 4.798-1.111 6.194-2.641 0.314-0.344 0.528-0.749 0.641-1.184 1.305 0.613 2.685 1.988 4.319 4.271 0.161 0.225 0.473 0.277 0.698 0.116 0.224-0.16 0.276-0.473 0.116-0.698-1.89-2.639-3.465-4.135-5.047-4.746-0.062-0.704-0.353-1.42-0.869-2.04-0.507-0.607-1.246-1.129-2.181-1.411 0.1-0.45 0.01-0.926-0.28-1.391-0.843-1.358-3.261-2.417-5.921-2.417"/>
  </g>
  <path d="m101.09 190.61 25.959 45.568 7.243-39.536zm78.848 14.324-15.582-2.83-14.147 77.211-30.063-5.461-48.989-86.999 5.2602-28.708 62.837 11.415 4.302-23.481 30.064 5.461-4.302 23.48 15.582 2.832-4.962 27.08" fill="#4f46e5"/>
  <path d="m305.43 284.57c-0.581 5.334-1.647 10.074-3.197 14.218-1.549 4.145-3.879 8.208-6.99 12.19-3.11 3.981-7.345 7.436-12.704 10.366-5.36 2.927-12.434 4.967-21.222 6.112-18.292 2.383-32.552-0.864-42.782-9.74-10.231-8.877-16.962-25.881-20.198-51.012-1.316-10.221-1.642-19.669-0.976-28.345 0.662-8.674 2.254-15.652 4.777-20.932 3.451-7.419 8.335-13.344 14.649-17.772 6.313-4.428 14.963-7.36 25.95-8.792 19.597-2.552 34.12 1.209 43.569 11.288 9.448 10.078 15.717 27.112 18.805 51.101 1.378 10.701 1.484 21.141 0.319 31.318" fill="#4f46e5"/>
  <path d="m251.77 201.13c-2.405 0.083-4.965 0.3-7.608 0.645-9.154 1.191-16.237 3.508-21.053 6.887-4.751 3.332-8.347 7.716-10.992 13.406l-0.05 0.103c-1.922 4.023-3.178 9.754-3.734 17.028-0.605 7.888-0.296 16.67 0.918 26.103 3.569 27.721 10.941 39.287 16.497 44.107 6.478 5.62 15.221 8.161 26.73 7.766 2.358-0.08 4.855-0.291 7.421-0.625 7.387-0.962 13.231-2.597 17.371-4.857 4.009-2.192 7.141-4.711 9.309-7.486 2.404-3.076 4.205-6.194 5.354-9.268 1.223-3.271 2.086-7.16 2.566-11.558 1.065-9.309 0.964-18.954-0.293-28.722-2.773-21.539-8.13-36.673-15.92-44.981-5.779-6.165-14.452-8.961-26.514-8.548h-2e-3" fill="#17282f"/>
  <path d="m245.74 272c-8.295 0.284-14.791 7.24-14.506 15.536 0.284 8.305 7.241 14.8 15.536 14.516 8.295-0.285 14.791-7.24 14.506-15.545-0.284-8.296-7.241-14.791-15.536-14.507zm25.595 12.271 0.13 3.788-2.326 0.759c-0.095 1.294-0.312 2.573-0.62 3.804l1.971 1.453-1.338 3.558-2.439-0.196c-0.581 1.15-1.264 2.245-2.029 3.271l1.263 2.108-2.597 2.77-2.179-1.115c-0.982 0.834-2.017 1.589-3.125 2.257l0.353 2.42-3.458 1.57-1.584-1.858c-1.208 0.392-2.458 0.685-3.752 0.879l-0.59 2.372-3.797 0.13-0.75-2.325c-1.305-0.106-2.573-0.313-3.804-0.62l-1.464 1.961-3.557-1.329 0.196-2.439c-1.15-0.591-2.245-1.273-3.271-2.039l-2.098 1.263-2.781-2.586 1.116-2.19c-0.834-0.971-1.59-2.016-2.248-3.125l-2.419 0.364-1.579-3.458 1.866-1.585c-0.391-1.208-0.695-2.468-0.879-3.752l-2.382-0.599-0.129-3.788 2.335-0.76c0.095-1.304 0.312-2.573 0.62-3.803l-1.971-1.455 1.339-3.557 2.438 0.196c0.581-1.15 1.264-2.244 2.03-3.271l-1.264-2.108 2.597-2.77 2.18 1.116c0.972-0.834 2.016-1.591 3.124-2.259l-0.363-2.419 3.458-1.569 1.595 1.856c1.207-0.391 2.458-0.684 3.752-0.879l0.589-2.371 3.798-0.13 0.75 2.326c1.304 0.105 2.572 0.311 3.803 0.62l1.454-1.961 3.558 1.329-0.187 2.437c1.151 0.591 2.235 1.275 3.272 2.04l2.098-1.263 2.78 2.587-1.115 2.188c0.833 0.973 1.589 2.018 2.248 3.126l2.419-0.364 1.579 3.459-1.867 1.585c0.392 1.207 0.695 2.457 0.879 3.752l2.372 0.599" fill="#4f46e5"/>
  <path d="m269.76 200.77-2.553 0.286-0.283 1.637c-0.062 0.014-0.124 0.028-0.185 0.043 4.69 1.403 8.516 3.709 11.545 6.941 3.153 3.363 5.908 7.844 8.254 13.416l0.499-1.734-1.4-0.888c0.147-0.848 0.222-1.717 0.227-2.595l1.535-0.625-0.274-2.554-1.648-0.283c-0.193-0.836-0.444-1.658-0.776-2.477l1.177-1.164-1.235-2.251-1.615 0.359c-0.516-0.72-1.077-1.379-1.683-1.99l0.65-1.532-2.01-1.605-1.347 0.959c-0.742-0.466-1.516-0.86-2.312-1.196l2e-3 -1.661-2.459-0.724-0.888 1.411c-0.859-0.146-1.728-0.233-2.594-0.238l-0.627-1.535" clip-path="url(#clipPath4116)" fill="#406fbf"/>
  <path d="m263.27 202.29-2.251 1.236 0.371 1.627c-0.72 0.503-1.379 1.065-1.99 1.67l-1.544-0.649-1.605 2.01 0.96 1.359c-0.467 0.73-0.861 1.504-1.197 2.3l-1.662-2e-3 -0.723 2.471 1.412 0.887c-0.147 0.848-0.234 1.717-0.228 2.583l-1.534 0.638 0.274 2.553 1.636 0.271c0.193 0.848 0.455 1.67 0.788 2.49l-1.177 1.164 1.235 2.251 1.614-0.36c0.505 0.72 1.077 1.379 1.672 1.991l-0.638 1.532 1.997 1.605 1.36-0.96c0.742 0.466 1.516 0.861 2.312 1.196l-0.014 1.663 2.471 0.722 0.888-1.411c0.859 0.147 1.716 0.234 2.594 0.239l0.626 1.534 2.553-0.286 0.284-1.635c0.836-0.193 1.67-0.444 2.477-0.787l1.176 1.188 2.251-1.235-0.372-1.627c0.721-0.504 1.38-1.065 1.991-1.671l1.532 0.638 1.605-1.998-0.948-1.36c0.467-0.729 0.861-1.504 1.196-2.311l1.662 0.013 0.213-0.736c-2.346-5.572-5.101-10.053-8.254-13.416-3.029-3.232-6.855-5.538-11.545-6.941-0.774 0.186-1.545 0.424-2.293 0.731l-1.175-1.177m7.064 20.003c-1.573 0-3.096-0.834-3.907-2.311-1.186-2.16-0.401-4.877 1.758-6.064 0.68-0.373 1.414-0.55 2.139-0.55 1.579 0 3.113 0.84 3.926 2.321 1.185 2.159 0.389 4.866-1.771 6.051-0.682 0.375-1.419 0.553-2.145 0.553" clip-path="url(#clipPath4112)" fill="#3730a3"/>
  <path d="m281.56 248.29c-3.936 0.135-7.01 3.439-6.876 7.363 0.135 3.936 3.428 7.011 7.363 6.876 3.936-0.134 7.011-3.427 6.876-7.364-0.134-3.924-3.428-7.01-7.363-6.875zm19.731 9.624-2.981 2.059-2e-3 7e-3c-0.295 1.083-0.702 2.126-1.199 3.105l0.764 2.997-4.323 4.63-3.044-0.557c-0.942 0.563-1.954 1.039-3.013 1.408l-8e-3 2e-3 -1.85 3.116-6.332 0.217-2.058-2.981-0.012-3e-3c-1.082-0.295-2.123-0.701-3.101-1.197l-2.996 0.764-4.631-4.325 0.557-3.037-2e-3 -3e-3c-0.574-0.953-1.04-1.965-1.408-3.024l-3.115-1.85-0.217-6.332 2.983-2.059c0.295-1.091 0.689-2.131 1.196-3.119v-1e-3l-0.761-2.988 4.323-4.631 3.025 0.554c0.954-0.564 1.967-1.042 3.04-1.41l2e-3 -1e-3 1.848-3.111 6.331-0.217 2.057 2.978c1.095 0.295 2.137 0.702 3.128 1.2h1e-3l2.982-0.76 4.63 4.323-0.556 3.038c0.574 0.953 1.04 1.966 1.408 3.026l3.117 1.851 0.217 6.331" fill="#fff"/>
  <g fill="#4f46e5">
   <path d="m317.95 314.92c-0.26 1.456 0.711 2.845 2.163 3.105 1.456 0.26 2.844-0.707 3.104-2.163 0.261-1.455-0.706-2.843-2.162-3.104-1.452-0.26-2.844 0.707-3.105 2.162zm5.088-6.486 0.522 1.255 2e-3 2e-3c0.374 0.194 0.725 0.425 1.046 0.685l1.16-0.045 1.36 1.953-0.444 1.073c0.132 0.391 0.228 0.799 0.279 1.218l1e-3 3e-3 0.998 0.925-0.419 2.342-1.257 0.52-2e-3 4e-3c-0.193 0.374-0.424 0.725-0.684 1.045l0.045 1.16-1.953 1.36-1.071-0.444-1e-3 1e-3c-0.395 0.136-0.804 0.227-1.222 0.278l-0.924 0.998-2.342-0.418-0.522-1.258c-0.377-0.193-0.728-0.421-1.051-0.685l-1.157 0.044-1.36-1.952 0.442-1.066c-0.132-0.396-0.228-0.805-0.279-1.228v-1e-3l-0.997-0.924 0.419-2.342 1.256-0.52c0.194-0.379 0.426-0.73 0.686-1.054l1e-3 -1e-3 -0.044-1.154 1.952-1.36 1.071 0.443c0.396-0.136 0.804-0.227 1.222-0.278h1e-3l0.925-0.998 2.341 0.419"/>
   <path d="m295.61 315.07-0.763 0.645c1.327 1.572 3.21 3.564 6.008 5.029l0.463-0.887c-2.982-1.56-4.892-3.822-5.708-4.787"/>
   <path d="m303.59 320.76-0.395 0.92c3.783 1.62 7.735 2.252 11.739 1.88l-0.093-0.996c-3.84 0.366-7.624-0.248-11.251-1.804"/>
   <path d="m301.7 313.84-0.827 0.562c2.054 3.017 6.113 5.644 9.872 6.389l0.194-0.98c-3.522-0.7-7.321-3.155-9.239-5.971"/>
  </g>
  <path d="m224.37 244.9c-1.818-2.744-2.459-6.032-1.803-9.258 0.655-3.226 2.527-6.004 5.271-7.823 5.666-3.753 13.329-2.201 17.081 3.462 3.754 5.664 2.201 13.33-3.462 17.087-5.662 3.753-13.327 2.198-17.087-3.468zm10.258-20.128c-2.528 0-5.082 0.715-7.343 2.213-2.966 1.966-4.99 4.97-5.698 8.458-0.709 3.488-0.016 7.042 1.949 10.009h1e-3c4.065 6.125 12.352 7.807 18.472 3.75 6.123-4.062 7.802-12.349 3.744-18.473-2.56-3.864-6.804-5.957-11.125-5.957zm-4.918-3.236 0.141-0.02c1.071-0.315 2.185-0.523 3.311-0.616 0.121-0.01 0.234-0.064 0.318-0.151l2.035-2.098 5.902 1.197 1.06 2.732c0.044 0.113 0.128 0.207 0.235 0.263 1.003 0.522 1.95 1.144 2.815 1.85 0.091 0.075 0.194 0.125 0.324 0.113l3.47-0.053 3.327 5.02-1.404 3.183c-0.048 0.108-0.055 0.229-0.022 0.342 0.316 1.091 0.523 2.205 0.615 3.311 0.01 0.121 0.063 0.233 0.15 0.318l2.1 2.036-1.197 5.901-2.727 1.058c-0.116 0.045-0.211 0.131-0.266 0.242-0.52 1-1.143 1.944-1.851 2.806-0.075 0.092-0.116 0.207-0.114 0.325l0.053 3.474-5.019 3.327-3.176-1.401c-0.108-0.046-0.228-0.054-0.341-0.023-1.084 0.315-2.202 0.522-3.323 0.616-0.121 0.01-0.233 0.064-0.317 0.15l-2.034 2.096-5.901-1.197-1.057-2.727c-0.044-0.113-0.128-0.207-0.236-0.262-0.996-0.519-1.944-1.143-2.817-1.855-0.091-0.074-0.213-0.127-0.325-0.114l-3.47 0.054-3.326-5.021 1.402-3.178c0.06-0.137 0.056-0.293-0.01-0.426-0.282-0.999-0.489-2.115-0.583-3.234-0.01-0.12-0.063-0.232-0.15-0.317l-2.098-2.035 1.196-5.902 2.726-1.056c0.122-0.047 0.22-0.14 0.274-0.257 0.518-0.992 1.139-1.934 1.843-2.791 0.075-0.092 0.117-0.209 0.115-0.327l-0.053-3.472 5.02-3.328 3.183 1.404zm5.637-3.929c-0.134 0-0.264 0.053-0.359 0.152l-2.097 2.161c-1.068 0.101-2.124 0.297-3.145 0.586l-3.268-1.441c-0.155-0.072-0.335-0.053-0.478 0.04l-5.475 3.63c-0.142 0.094-0.226 0.253-0.224 0.424l0.055 3.564c-0.665 0.828-1.259 1.726-1.767 2.677l-2.805 1.087c-0.158 0.062-0.275 0.2-0.309 0.367l-1.305 6.437c-0.034 0.167 0.02 0.34 0.142 0.459l2.161 2.096c0.1 1.062 0.296 2.12 0.584 3.149l-1.44 3.264c-0.069 0.156-0.053 0.336 0.041 0.478l3.629 5.476c0.094 0.142 0.227 0.23 0.425 0.224l3.561-0.055c0.836 0.668 1.736 1.261 2.679 1.765l1.088 2.806c0.062 0.159 0.2 0.276 0.367 0.31l6.437 1.305c0.168 0.033 0.34-0.02 0.459-0.141l2.094-2.159c1.064-0.1 2.123-0.297 3.153-0.585l3.263 1.438c0.155 0.069 0.335 0.053 0.478-0.041l5.475-3.629c0.142-0.094 0.226-0.254 0.223-0.425l-0.054-3.565c0.666-0.829 1.258-1.727 1.764-2.675l2.807-1.089c0.16-0.061 0.276-0.199 0.31-0.366l1.305-6.437c0.034-0.167-0.02-0.34-0.142-0.459l-2.162-2.097c-0.099-1.051-0.295-2.106-0.585-3.144l1.441-3.268c0.069-0.156 0.054-0.337-0.04-0.479l-3.629-5.474c-0.094-0.142-0.244-0.213-0.424-0.224l-3.563 0.054c-0.83-0.662-1.729-1.253-2.676-1.759l-1.09-2.812c-0.062-0.16-0.201-0.276-0.367-0.31l-6.438-1.306-0.099-9e-3" fill="#fff"/>
  <path d="m346.41 206.63 38.758 35.328-5.316-39.842zm79.418-10.718-15.694 2.118 10.38 77.809-30.281 4.086-73.453-67.626-3.86-28.93 63.292-8.542-3.157-23.662 30.282-4.086 3.156 23.661 15.695-2.117 3.64 27.289" fill="#4f46e5"/>
  <g fill="#17282f">
   <path d="m394.13 147.82-0.091 8e-3c-0.271 0.05-0.451 0.311-0.401 0.582l23.326 127.93c0.049 0.271 0.312 0.44 0.581 0.402 0.272-0.049 0.452-0.31 0.402-0.582l-23.326-127.93c-0.044-0.242-0.254-0.411-0.491-0.411"/>
   <path d="m414.83 274.19c-0.015-0.452-0.394-0.805-0.847-0.791-0.452 0.016-0.806 0.396-0.791 0.848 0.016 0.452 0.395 0.807 0.847 0.791 0.453-0.016 0.807-0.394 0.791-0.848"/>
   <path d="m411.5 256.89c-0.016-0.452-0.395-0.806-0.847-0.791-0.453 0.015-0.807 0.395-0.791 0.847 0.015 0.452 0.395 0.807 0.847 0.791 0.452-0.015 0.806-0.395 0.791-0.847"/>
   <path d="m408.17 239.59c-0.015-0.452-0.395-0.806-0.847-0.791-0.452 0.016-0.806 0.395-0.791 0.848 0.016 0.452 0.395 0.806 0.847 0.791 0.453-0.016 0.807-0.396 0.791-0.848"/>
   <path d="m401.61 221.58c-0.015-0.452-0.394-0.806-0.847-0.791-0.452 0.016-0.806 0.395-0.791 0.847 0.016 0.452 0.395 0.806 0.847 0.791 0.453-0.016 0.807-0.395 0.791-0.847"/>
   <path d="m401.5 204.99c-0.015-0.452-0.394-0.805-0.847-0.791-0.452 0.016-0.806 0.396-0.79 0.848 0.015 0.452 0.394 0.807 0.846 0.791 0.453-0.016 0.807-0.395 0.791-0.848"/>
   <path d="m398.17 187.69c-0.016-0.453-0.395-0.806-0.847-0.791s-0.807 0.395-0.791 0.847c0.015 0.452 0.395 0.806 0.847 0.791s0.806-0.395 0.791-0.847"/>
   <path d="m394.84 170.39c-0.015-0.452-0.394-0.807-0.846-0.791-0.453 0.015-0.807 0.395-0.792 0.847 0.016 0.453 0.395 0.806 0.847 0.791 0.453-0.015 0.807-0.395 0.791-0.847"/>
   <path d="m391.5 153.09c-0.015-0.452-0.395-0.807-0.847-0.791s-0.806 0.396-0.791 0.848c0.016 0.452 0.395 0.805 0.847 0.791 0.452-0.016 0.807-0.396 0.791-0.848"/>
   <path d="m400.79 221.11c-0.231 0-0.438 0.16-0.488 0.395-0.058 0.27 0.113 0.535 0.383 0.594l2.484 0.533c0.274 0.054 0.536-0.113 0.594-0.385 0.058-0.269-0.114-0.535-0.384-0.594l-2.484-0.533-0.105-0.01"/>
   <path d="m409.08 230.32s-2.238-5.829-2.991-9.36c-0.754-3.532-0.799-11.425-0.799-11.425"/>
   <path d="m405.3 209.04h-3e-3c-0.276 2e-3 -0.499 0.227-0.497 0.503 2e-3 0.324 0.054 7.985 0.81 11.527 0.753 3.529 2.921 9.195 3.013 9.435 0.099 0.257 0.387 0.385 0.646 0.287 0.258-0.098 0.387-0.388 0.288-0.645-0.023-0.059-2.233-5.834-2.969-9.286-0.734-3.443-0.788-11.246-0.788-11.324-2e-3 -0.275-0.225-0.497-0.5-0.497"/>
   <path d="m222.45 122.72c1.389 22.402-1.166 63.126 40.944 57.735 45.136-5.777 32.223-58.556 32.223-58.556l-73.167 0.821"/>
  </g>
  <path d="m269.89 154.56c0-10.149-8.227-18.375-18.375-18.375-10.149 0-18.376 8.226-18.376 18.375 0 10.148 8.227 18.375 18.376 18.375 10.148 0 18.375-8.227 18.375-18.375" fill="#fff"/>
  <path d="m253.93 172.91c-8.703 1.488-18.01-4.928-18.927-11.428l34.507-3.173c-1.216 7.409-8.674 13.423-15.58 14.601" fill="#17282f"/>
  <path d="m265.58 155.02c-0.247-4.804-2.865-8.575-5.848-8.421-2.983 0.153-5.201 4.172-4.954 8.975 0.246 4.804 2.864 8.575 5.847 8.421 2.983-0.152 5.202-4.171 4.955-8.975" fill="#17282f"/>
  <path d="m251.51 171.94c-9.581 0-17.376-7.794-17.376-17.375s7.795-17.375 17.376-17.375c9.58 0 17.375 7.794 17.375 17.375s-7.795 17.375-17.375 17.375zm0-36.75c-10.684 0-19.376 8.691-19.376 19.375 0 10.683 8.692 19.375 19.376 19.375 10.683 0 19.375-8.692 19.375-19.375 0-10.684-8.692-19.375-19.375-19.375" fill="#4f46e5"/>
  <path d="m292.08 130.96-1.001 0.022c0.508 5.243 0.659 12.759-1.166 20.322-0.065 0.268 0.1 0.538 0.368 0.603 0.038 9e-3 0.076 0.013 0.113 0.013 0.226 0 0.435-0.151 0.49-0.382 1.848-7.65 1.706-15.251 1.196-20.578" fill="#57666b"/>
  <path d="m287.7 158.8c-0.19 0-0.371 0.108-0.455 0.292-1.286 2.805-2.881 5.382-4.742 7.657-0.174 0.214-0.143 0.528 0.071 0.703 0.093 0.077 0.205 0.114 0.317 0.114 0.144 0 0.288-0.063 0.387-0.184 1.914-2.341 3.555-4.99 4.876-7.874 0.116-0.251 5e-3 -0.548-0.246-0.662l-0.208-0.046" fill="#57666b"/>
  <path d="m128.74 17.644c-0.125 0-0.248 8e-4 -0.372 0.0039-2.761 0.077-4.937 2.3762-4.861 5.136 0.075 2.7601 2.349 4.8949 5.135 4.8609l0.096-8e-4c2.889 0 9.839 3.509 24.378 26.429 0.782 1.2309 2.061 2.0598 3.504 2.27 1.445 0.205 2.905-0.2231 4.005-1.1801 17.941-15.642 36.953-25.38 37.143-25.476 2.462-1.25 3.444-4.2601 2.195-6.7211-1.25-2.4621-4.259-3.4469-6.72-2.1961-0.755 0.3821-17.373 8.8793-34.798 23.146-12.186-18.319-21.229-26.272-29.705-26.272" fill="#17282f"/>
  <path d="m159.67 56.062c-0.141 0-0.284 9e-3 -0.428 0.0301-1.64 0.234-2.78 1.7539-2.545 3.3937 0.711 4.977-0.171 23.626-6.475 38.126-0.575 1.3219-0.129 2.8649 1.062 3.6759 13.698 9.335 42.876 10.451 44.112 10.494 1.647 0.036 3.044-1.238 3.102-2.893 0.058-1.656-1.238-3.045-2.893-3.103-0.271-0.01-25.78-0.988-38.888-8.202 5.584-14.438 6.849-32.436 5.919-38.947-0.214-1.4961-1.497-2.575-2.966-2.575" fill="#17282f"/>
  <path d="m164.71 59.945c-1.996 4.7063-10.988 4.1723-16.268 0.1391-2.822-2.1551-6.641-8.641-7.043-10.991-0.401-2.3508 1.228-4.4809 4.024-4.2379 3.447 0.298 8.181 5.3078 8.181 5.3078-3.149-3.0879 0.914-5.266 6.977-0.802 3.363 2.4782 6.363 5.3153 4.129 10.584" fill="#4f46e5"/>
  <path d="m346.73 142.92c0.45-0.168 0.961-0.267 1.437-0.323 4.982-0.59 9.382 0.107 10.04 0.728-0.17 0.154-0.841 0.582-3.329 1.058-3.283 0.625-6.151-0.198-8.148-1.463m-1.262-5.622 0.259-0.07c3.53-0.865 8.298-1.012 9.933-0.744-0.507 0.214-1.541 0.556-3.636 1.018-2.773 0.611-4.941 0.421-6.556-0.204m-3.334-6.568c0.276-0.512 0.687-0.934 1.22-1.217 2.256-1.201 6.696-1.476 8.361-0.804 0.341 0.138 0.392 0.252 0.392 0.253 0 3e-3 -0.055 0.562-2.501 1.609-2.803 1.199-5.039 1.367-6.831 0.518-0.219-0.105-0.433-0.224-0.641-0.359m-5.425-9.332-0.139 0.02c-0.265 0.076-0.418 0.354-0.342 0.618 1.332 4.64 2.787 7.475 4.7 9.051-0.293 0.996-0.26 2.14 0.153 3.259 0.402 1.089 1.179 2.171 2.361 3.005-0.579 0.626-0.794 1.445-0.59 2.381 0.227 1.041 0.984 2.17 2.136 3.157-0.452 0.52-0.563 1.088-0.567 1.507-0.025 2.983 5.508 7.526 11.763 8.379 0.274 0.051 0.526-0.153 0.563-0.427s-0.155-0.526-0.429-0.563c-5.937-0.81-10.916-5.109-10.897-7.38 3e-3 -0.368 0.14-0.664 0.362-0.903 2.252 1.567 5.575 2.575 9.282 1.863 3.07-0.587 4.318-1.235 4.173-2.167-0.272-1.753-6.809-2.115-11.19-1.593-0.992 0.118-1.719 0.352-2.25 0.645-1.089-0.891-1.786-1.891-1.969-2.73-0.163-0.75 0.079-1.272 0.495-1.636 1.857 0.957 4.47 1.357 7.916 0.595 4.537-1.001 4.707-1.554 4.808-1.883 0.073-0.236 0.014-0.477-0.161-0.662-0.956-1.013-7.906-0.533-11.398 0.323-0.454 0.111-0.856 0.263-1.202 0.451-1.158-0.728-1.901-1.713-2.268-2.708-0.294-0.798-0.361-1.593-0.225-2.303 0.18 0.108 0.363 0.205 0.551 0.295 2.069 0.982 4.572 0.818 7.654-0.501 2.045-0.876 3.031-1.65 3.103-2.439 0.022-0.234-0.024-0.68-0.57-1.042-1.525-1.013-6.87-0.86-9.649 0.62-0.655 0.35-1.174 0.865-1.538 1.486-1.635-1.493-2.953-4.166-4.156-8.355-0.063-0.22-0.263-0.363-0.48-0.363" fill="#17282f"/>
  <path d="m206.53 19.314c0.658 0.2101 0.438 0.8461-0.298 0.8461h-13.539c-25.781 2.7308-43.794-0.9293-32.443-1.7911 11.35-0.8632-0.8-0.682-9.089-3.8171-8.288-3.136 61.654-3.927 68.016 0 5.867 3.6199-21.783 1.8339-12.647 4.7621" fill="#17282f"/>
  <path d="m303.47 15.323-117.8 3.9059-4.889 114.22 139.11-3.111-16.42-115.02" fill="#4f46e5"/>
  <path d="m222.45 17.509c-0.258 0-0.477 0.1969-0.498 0.459l-9.444 114.72c-0.022 0.275 0.182 0.516 0.458 0.539 0.282 0.015 0.517-0.182 0.539-0.457l9.444-114.72c0.022-0.2758-0.182-0.5168-0.458-0.5391l-0.041-0.0019" fill="#17282f"/>
  <path d="m303.47 15.323 31.662 4.8211 9.973 106.21-25.215 3.985-16.42-115.02" fill="#406fbf"/>
  <path d="m303.47 15.323 1.237 8.6641c0.136 0.0039 0.27 0.0059 0.4 0.0059 3.806 0 5.132-1.725 5.205-1.8258-0.082 0.1129-0.115 0.1828-0.115 0.1828l8.608 5.0891c-0.188 0.3179-3.75 6.125-12.673 6.5347l13.758 96.365 25.215-3.985-3.413-36.342-0.023-0.25-4.188-44.599-0.023-0.25-1.001-10.657-0.023-0.25-1.302-13.862-31.662-4.8211" fill="#4338ca"/>
  <path d="m195.73 41.245-2.904 67.863c-0.303 7.082 5.444 12.949 12.532 12.79l88.059-1.969c7.353-0.165 12.91-6.719 11.871-14l-9.763-68.392c-0.885-6.198-6.295-10.735-12.552-10.528l-75.391 2.4988c-6.412 0.2133-11.577 5.3293-11.852 11.737" fill="#17282f"/>
  <g fill="#fff">
   <path d="m205.25 101.07 13.624-0.433-0.112-3.513-8.529 0.271-0.083-2.614 7.912-0.252-0.107-3.355-7.912 0.2511-0.103-3.2429 8.776-0.2801-0.119-3.725-13.87 0.441 0.523 16.452"/>
   <path d="m226.82 93.714 2.143-0.068c0.232-7e-3 0.683 0.0527 1.354 0.1809 0.339 0.057 0.619 0.2199 0.841 0.4902 0.222 0.2699 0.339 0.5848 0.35 0.9437 0.017 0.5313-0.138 0.9442-0.466 1.2391-0.327 0.2949-0.955 0.4582-1.883 0.4871l-2.233 0.0719zm-5.418-9.6231 0.524 16.452 8.472-0.27c1.572-0.05 2.768-0.223 3.59-0.5191 0.822-0.2949 1.475-0.816 1.961-1.5617 0.486-0.7461 0.712-1.6422 0.678-2.6891-0.029-0.9133-0.249-1.6941-0.659-2.3441s-0.962-1.1699-1.657-1.559c-0.442-0.248-1.044-0.4469-1.806-0.5949 0.599-0.2219 1.034-0.4379 1.304-0.6481 0.183-0.141 0.445-0.4379 0.786-0.891s0.568-0.8012 0.679-1.0449l2.311-4.8461-5.745 0.184-2.557 5.114c-0.324 0.661-0.617 1.0942-0.88 1.2969-0.359 0.266-0.77 0.4063-1.234 0.4211l-0.448 0.0149-0.213-6.6778-5.106 0.1629"/>
   <path d="m244.7 93.146 2.143-0.0691c0.232-0.0079 0.683 0.0531 1.354 0.182 0.339 0.0558 0.62 0.2199 0.841 0.489 0.222 0.2711 0.339 0.5852 0.35 0.9442 0.017 0.5316-0.138 0.9449-0.466 1.2398-0.327 0.295-0.955 0.4571-1.883 0.486l-2.233 0.0711zm-5.418-9.6242 0.524 16.452 8.473-0.2699c1.571-0.05 2.767-0.223 3.589-0.518 0.822-0.2961 1.475-0.8168 1.961-1.5617 0.486-0.7461 0.712-1.6433 0.678-2.6902-0.029-0.9129-0.248-1.6942-0.658-2.3442-0.411-0.65-0.963-1.1687-1.657-1.5597-0.443-0.2481-1.045-0.4449-1.807-0.593 0.599-0.2223 1.034-0.4379 1.305-0.6492 0.182-0.1399 0.444-0.4367 0.785-0.8899 0.341-0.4539 0.568-0.8019 0.68-1.0449l2.31-4.8461-5.745 0.1828-2.557 5.1141c-0.323 0.6609-0.617 1.0941-0.88 1.2973-0.358 0.266-0.77 0.4066-1.233 0.4218l-0.449 0.0141-0.213-6.6781-5.106 0.1629"/>
   <path d="m261.4 91.019c-0.053-1.6621 0.218-2.8652 0.812-3.6101s1.422-1.1348 2.485-1.1692c1.092-0.0347 1.949 0.2942 2.57 0.9864 0.621 0.691 0.961 1.9578 1.019 3.798 0.05 1.5477-0.227 2.6899-0.828 3.4238-0.603 0.7352-1.438 1.1192-2.508 1.154-1.026 0.032-1.86-0.3051-2.504-1.011-0.644-0.7058-0.993-1.8969-1.046-3.5719zm-5.083 0.1829c0.086 2.6871 0.9 4.7539 2.444 6.2019 1.544 1.4492 3.651 2.1313 6.322 2.0461 2.739-0.0871 4.825-0.8891 6.26-2.4059 1.434-1.5179 2.109-3.6011 2.025-6.2492-0.061-1.923-0.435-3.489-1.121-4.6988-0.687-1.2102-1.652-2.1379-2.897-2.784s-2.78-0.9391-4.606-0.8812c-1.855 0.0589-3.381 0.4031-4.578 1.0332-1.198 0.63-2.153 1.5961-2.868 2.8988-0.715 1.3043-1.042 2.9172-0.981 4.8391"/>
   <path d="m281.32 91.98 2.143-0.0692c0.232-7e-3 0.683 0.0539 1.354 0.1821 0.339 0.0562 0.619 0.2199 0.841 0.4902 0.222 0.2707 0.339 0.5848 0.35 0.943 0.017 0.532-0.138 0.9449-0.466 1.2398s-0.955 0.4578-1.883 0.4871l-2.233 0.0707zm-5.418-9.6242 0.523 16.453 8.474-0.2699c1.571-0.0512 2.767-0.2231 3.589-0.5192 0.822-0.2949 1.476-0.8168 1.961-1.5617 0.486-0.7461 0.712-1.6434 0.678-2.6891-0.029-0.9132-0.248-1.6953-0.659-2.3441-0.41-0.6508-0.963-1.1699-1.657-1.5602-0.442-0.2476-1.044-0.4457-1.806-0.5937 0.599-0.2211 1.034-0.4379 1.304-0.6481 0.183-0.1421 0.445-0.4378 0.786-0.8921 0.341-0.4528 0.568-0.8 0.68-1.0438l2.31-4.8461-5.745 0.1832-2.557 5.1149c-0.324 0.6609-0.617 1.0929-0.88 1.2968-0.358 0.2653-0.77 0.4063-1.234 0.4211l-0.448 0.0141-0.213-6.6781-5.106 0.1629"/>
   <path d="m284 54.403c-0.356 0-0.71 0.1438-0.97 0.427l-8.56 9.3687-9.237-8.4386c-0.535-0.4903-1.365-0.4512-1.855 0.0828l-8.56 9.3691-9.237-8.4391c-0.535-0.4898-1.366-0.4519-1.854 0.0829l-8.561 9.3691-9.237-8.441c-0.256-0.2352-0.602-0.3578-0.944-0.343-0.348 0.016-0.675 0.1692-0.91 0.4262l-8.561 9.3687-9.237-8.439c-0.534-0.4887-1.365-0.45-1.854 0.0832-0.489 0.5347-0.451 1.366 0.084 1.8539l10.205 9.3262c0.535 0.491 1.366 0.4519 1.855-0.0832l8.56-9.37 9.237 8.441c0.257 0.2352 0.601 0.3559 0.945 0.343 0.347-0.016 0.675-0.1691 0.91-0.4262l8.56-9.3687 9.237 8.4391c0.534 0.4898 1.365 0.4519 1.855-0.0832l8.56-9.3688 9.237 8.4398c0.535 0.4911 1.365 0.4532 1.854-0.0832l9.447-10.338c0.489-0.536 0.451-1.3668-0.084-1.8551-0.252-0.2297-0.569-0.3438-0.885-0.3438"/>
  </g>
  <path d="m125.75 12.895-6.258 2.9852-5.583 27.167 3.03 3.3371 8.811-33.489" fill="#4f46e5"/>
  <path d="m125.75 12.895 8.305 4.8512-7.12 22.384-9.996 6.2539 8.811-33.489" fill="#406fbf"/>
  <path d="m125.75 12.895-8.811 33.489 9.996-6.2539 7.12-22.384-8.305-4.8512" fill="#4338ca"/>
  <path d="m261.95 7.9559c-0.236 0-0.467 0.0043-0.691 0.01016-2.76 0.07617-4.937 2.375-4.861 5.136 0.076 2.7582 2.356 4.9281 5.135 4.8601 7.703-0.2519 24.006 4.4801 33.319 13.52 0.576 0.559 1.277 0.9711 2.046 1.202 15.788 4.7379 21.665-4.834 21.907-5.2449l-8.608-5.0891s0.033-0.0699 0.115-0.1828c-0.095 0.1316-2.331 3.0387-9.451 1.2398-11.687-10.668-29.627-15.451-38.911-15.451" fill="#17282f"/>
  <path d="m261.4 1.3102-18.213 1.1469-1.437 33.576 24.477-0.9141-4.827-33.809" fill="#4f46e5"/>
  <path d="m261.4 1.3102 4.257 4.2359 2.639 20.936-2.069 8.6371-4.827-33.809" fill="#406fbf"/>
  <path d="m261.4 1.3102 4.827 33.809 2.069-8.6371-2.639-20.936-4.257-4.2359" fill="#4338ca"/>
  <path d="m366.91 14.024c-0.632 0-1.27 0.1996-1.813 0.6117-10.394 7.9-24.445 21.926-29.837 35.457-0.078 0.1968-0.136 0.4031-0.171 0.6129-2.629 15.633-5.141 48.541-5.247 49.935-0.125 1.651 1.113 3.092 2.764 3.217 1.648 0.122 3.094-1.112 3.219-2.764 0.026-0.336 2.562-33.567 5.128-49.073 5.377-13.157 19.957-26.666 27.775-32.608 1.319-1.0027 1.576-2.8848 0.573-4.2039-0.59-0.7758-1.485-1.1848-2.391-1.1848" fill="#17282f"/>
  <path d="m380.78 12.509c-2.32 0-4.949 1.0519-7.815 3.125-1.342 0.9719-1.643 2.8469-0.671 4.189 0.972 1.3418 2.847 1.643 4.189 0.6719 2.477-1.7929 3.83-1.9859 4.297-1.9859 1.657 0 3-1.343 3-3s-1.343-3-3-3" fill="#17282f"/>
  <path d="m373.8 15.719c3.21 9.536 16.37 7.6508 20.902 6.2348s8.615-3.1969 11.069-4.8027c2.455-1.6043 2.495-4.2852-0.778-5.816-4.036-1.8883-14.162-0.2122-14.162-0.2122 5.242-2.2949-0.01-5.973-9.205-2.3601-2.993 1.1762-8.959 3.4633-7.826 6.9562" fill="#4f46e5"/>
  <g fill="#17282f">
   <path d="m341.86 96.525c-1.192-8.1012-7.9-14.076-13.358-13.274-5.458 0.8027-5.684 8.0379-4.494 16.14 1.192 8.102 3.35 14.002 8.807 13.199 5.458-0.802 10.236-7.963 9.045-16.065"/>
   <path d="m210.69 129.69c0-0.453-0.366-0.82-0.819-0.82s-0.819 0.367-0.819 0.82c0 0.452 0.366 0.819 0.819 0.819s0.819-0.367 0.819-0.819"/>
   <path d="m218.21 123.78c0-0.453-0.366-0.82-0.819-0.82s-0.82 0.367-0.82 0.82c0 0.452 0.367 0.82 0.82 0.82s0.819-0.368 0.819-0.82"/>
   <path d="m219.12 26.879c0-0.4527-0.367-0.8187-0.819-0.8187-0.453 0-0.82 0.366-0.82 0.8187 0 0.452 0.367 0.8191 0.82 0.8191 0.452 0 0.819-0.3671 0.819-0.8191"/>
   <path d="m226.64 20.976c0-0.4532-0.367-0.8203-0.82-0.8203-0.452 0-0.819 0.3671-0.819 0.8203 0 0.4527 0.367 0.8199 0.819 0.8199 0.453 0 0.82-0.3672 0.82-0.8199"/>
   <path d="m93.508 21.16h-0.0019c-0.0024-0.0012-0.3754-0.1903-0.5204-1.8602-0.146-1.6828 0.1594-2.823 0.934-3.484 0.1758-0.1512 0.3766-0.2769 0.5993-0.3789 0.2824 0.3121 0.4757 0.6629 0.5433 1.0277 0.268 1.4493-0.4226 3.5711-1.1961 4.4301-0.2012 0.2231-0.3305 0.2653-0.3582 0.2653zm-6.291-0.868c-0.0059-0.3762 0.0281-1.0082 0.1773-2.059 0.2028-1.4273 0.7293-2.5242 1.5184-3.2223-0.234 2.0082-1.125 4.3332-1.6957 5.2813zm-5.5715-0.8723c-0.0574-0.1527-0.1625-0.659 0.0848-2.0437 0.3285-1.8403 1.5199-3.0621 2.839-3.7082-0.0062 0.2129-0.0453 0.4492-0.116 0.7082-0.7851 2.8578-2.2785 4.8277-2.8078 5.0437zm0.8649-8.2769c-2.3797 0-5.5977 1.4422-7.3332 3.9492-0.1575 0.2258-0.1008 0.5379 0.1261 0.6949 0.2274 0.1578 0.5383 0.1008 0.6957-0.1269 1.8664-2.6942 5.9793-4.1313 7.8055-3.2801 0.1918 0.0898 0.3477 0.2031 0.4672 0.339-1.632 0.7539-3.1238 2.2297-3.5258 4.4809-0.2266 1.268-0.4066 2.9809 0.6391 3.2172 1.434 0.3219 3.3105-3.1461 4.0324-5.775 0.1336-0.4871 0.1758-0.9371 0.1301-1.3434 0.6324-0.1726 1.2539-0.2179 1.7867-0.1406 0.4328 0.0629 1.0484 0.241 1.3746 0.7449-1.2148 0.8219-2.0324 2.2688-2.3047 4.1899-0.3879 2.734-0.0973 3.2109 0.2059 3.4441 0.1972 0.152 0.4472 0.1801 0.6882 0.0777 1.0692-0.4546 2.3653-4.3339 2.6125-6.5289 0.027-0.2418 0.0274-0.4738 0.0028-0.6929 0.409-0.1629 0.8601-0.252 1.3484-0.2621 0.8668-0.05 1.7242 0.2261 2.4098 0.6293-0.1418 0.0886-0.2762 0.1867-0.402 0.2949-1.0375 0.8859-1.4558 2.3031-1.28 4.3308 0.1355 1.5672 0.4925 2.4243 1.1226 2.693 0.2207 0.0981 0.6711 0.1902 1.2078-0.2391 1.0793-0.8628 2.0883-3.5976 1.7254-5.5566-0.075-0.4051-0.25-0.7941-0.5023-1.1512 1.8347-0.316 4.4172 0.1989 6.644 0.7489 0.267 0.0652 0.539-0.0969 0.605-0.3649 0.066-0.2691-0.097-0.539-0.365-0.6058-2.7098-0.6704-5.6274-1.2153-7.6875-0.6172-0.9165-0.7282-2.2059-1.1711-3.4985-1.1621-0.589 0.0121-1.1379 0.1171-1.639 0.3082-0.3942-0.6711-1.1274-1.125-2.1239-1.2711-0.664-0.0989-1.4465-0.0352-2.2379 0.191-0.225-0.375-0.5648-0.675-1.0132-0.8852-0.4782-0.2226-1.0661-0.3297-1.7168-0.3308"/>
   <path d="m228.87 3.584 2.71 4.7-2.71 4.6992h-2.901l1.639-4.7-1.639-4.6992h2.901"/>
   <path d="m226.16 5.834c-1.35 0-2.45 1.1-2.45 2.45s1.1 2.4398 2.45 2.4398l-4.607 0.9223-1.223-3.7211 2.056-3.1391 3.774 1.048"/>
  </g>
  <g fill="#4f46e5">
   <path d="m223.85 5.834c-1.35 0-2.45 1.1-2.45 2.45s1.1 2.4398 2.45 2.4398 2.44-1.0898 2.44-2.4398-1.09-2.45-2.44-2.45zm2.71 7.1492h-5.43l-2.71-4.6992 2.71-4.7h5.43l2.71 4.7-2.71 4.6992"/>
   <path d="m417.89 13.297-2.012 3.4902 2.012 3.4899h2.155l-1.217-3.4899 1.217-3.4902h-2.155"/>
   <path d="m419.9 14.968c1.003 0 1.82 0.816 1.82 1.8191 0 1.002-0.817 1.8129-1.82 1.8129l3.422 0.684 0.908-2.7629-1.527-2.3313-2.803 0.7782"/>
  </g>
  <path d="m421.62 14.968c1.002 0 1.819 0.816 1.819 1.8191 0 1.002-0.817 1.8129-1.819 1.8129-1.003 0-1.813-0.8109-1.813-1.8129 0-1.0031 0.81-1.8191 1.813-1.8191zm-2.013 5.309h4.033l2.012-3.4899-2.012-3.4902h-4.033l-2.013 3.4902 2.013 3.4899" fill="#17282f"/>
  <path d="m342.95 8.6629h4.518c1.176 0 2.139 0.96328 2.139 2.1402 0 1.1758-0.963 2.1379-2.139 2.1379h-4.518c-1.177 0-2.139-0.9621-2.139-2.1379 0-1.1769 0.962-2.1402 2.139-2.1402" fill="#17282f"/>
  <path d="m335.73 12.698c1.115 2.3668 3.82 3.436 6.041 2.3891 2.221-1.048 3.117-3.8141 2.002-6.1812-1.116-2.366-3.821-3.4348-6.042-2.3867-2.221 1.0469-3.117 3.8129-2.001 6.1789" fill="#4f46e5"/>
  <path d="m336.98 6.5262 1.239-0.58515 4.308 9.1379-1.239 0.584-4.308-9.1367" fill="#17282f"/>
 </g>
</svg>
