<svg width="123.57mm" height="87.986mm" version="1.1" viewBox="0 0 123.57 87.986" xmlns="http://www.w3.org/2000/svg">
 <defs>
  <clipPath id="clipPath2954">
   <path d="m125.05 61.864 35.526 35.526a8.4667 8.4667 90 0 1 0 11.974l-35.526 35.526a8.4667 8.4667 180 0 1-11.974 0l-35.526-35.526a8.4667 8.4667 90 0 1-1e-6 -11.974l35.526-35.526a8.4667 8.4667 180 0 1 11.974 0z" fill="#4338ca" stroke-linecap="square" stroke-width="13.229"/>
  </clipPath>
  <filter id="filter2958" x="-.074401" y="-.074401" width="1.1488" height="1.1488" color-interpolation-filters="sRGB">
   <feGaussianBlur stdDeviation="2.7275996"/>
  </filter>
 </defs>
 <g transform="translate(-39.488 -59.384)" stroke-linecap="square">
  <g stroke-width="13.229">
   <path d="m125.05 61.864 35.526 35.526a8.4667 8.4667 90 0 1 0 11.974l-35.526 35.526a8.4667 8.4667 180 0 1-11.974 0l-35.526-35.526a8.4667 8.4667 90 0 1-1e-6 -11.974l35.526-35.526a8.4667 8.4667 180 0 1 11.974 0z" fill="#4338ca"/>
   <path d="m89.468 61.864 35.526 35.526a8.4667 8.4667 90 0 1 0 11.974l-35.526 35.526a8.4667 8.4667 180 0 1-11.974 0l-35.526-35.526a8.4667 8.4667 90 0 1-1e-6 -11.974l35.526-35.526a8.4667 8.4667 6.0312e-7 0 1 11.974 0z" clip-path="url(#clipPath2954)" filter="url(#filter2958)" opacity=".75" style="mix-blend-mode:normal"/>
   <path d="m89.468 61.864 35.526 35.526a8.4667 8.4667 90 0 1 0 11.974l-35.526 35.526a8.4667 8.4667 180 0 1-11.974 0l-35.526-35.526a8.4667 8.4667 90 0 1-1e-6 -11.974l35.526-35.526a8.4667 8.4667 6.0312e-7 0 1 11.974 0z" fill="#4f46e5"/>
  </g>
  <g transform="rotate(-45)" fill="#fff" stroke-width="57.384" aria-label="B">
   <path d="m-17.129 141.31v-6.121h6.121v6.121zm0-12.242v-6.121h6.121v6.121zm18.363 18.363v-12.242h-6.121v-6.121h6.121v-12.242h-30.605v30.605zm-36.726 6.121v-42.847h42.847v42.847z"/>
  </g>
 </g>
</svg>
