<svg width="42.495mm" height="12.237mm" version="1.1" viewBox="0 0 42.495 12.237" xmlns="http://www.w3.org/2000/svg">
 <path d="m2.1167 0h40.378l-2.1167 12.237h-40.378z" fill="#06f" stroke-width="1.9648"/>
 <g fill="#fff" stroke-width=".26458" aria-label="BICARA">
  <path d="m8.7643 4.6583c0.042332-1.4287-1.0054-2.2859-2.4341-2.2859h-3.0056v7.4928h3.0585c1.6615 0 2.4764-0.73023 2.6669-1.9367 0.095247-0.57148-0.031749-1.5345-1.0583-2.0531 0.53973-0.27516 0.76198-0.87839 0.77256-1.217zm-3.5347 0.64556v-1.3335h1.1006c0.95247 0 0.92072 1.3335 0 1.3335zm0 2.8997v-1.5345h1.1006c1.1218 0 1.143 1.5345 0 1.5345z"/>
  <path d="m11.823 2.3723h-1.8944v7.4928h1.8944z"/>
  <path d="m16.829 7.5263c-0.41274 1.0371-2.106 0.78314-2.106-0.11641v-2.5823c0-0.9313 1.6721-1.143 2.1801-0.21166l1.5451-0.6244c-0.60323-1.3335-1.7144-1.725-2.6352-1.725-1.5028 0-2.9844 0.86781-2.9844 2.5611v2.5823c0 1.7039 1.4816 2.5611 2.9527 2.5611 0.94189 0 2.0743-0.46565 2.6987-1.6827z"/>
  <path d="m22.797 2.3723h-1.725l-2.614 7.4928h2.0319l0.46565-1.5028h2.0002l0.48682 1.5028h2.0319zm-1.4181 4.3073 0.55032-2.1907h0.05291l0.51857 2.1907z"/>
  <path d="m29.962 9.8651h2.36l-2.0425-2.5717c0.91014-0.28574 1.471-1.0689 1.471-2.4553-0.042332-1.7568-1.2382-2.4658-2.7833-2.4658h-2.995v7.4928h1.9155v-2.3812h0.33866zm-2.0743-4.011v-1.7144h1.1112c1.1959 0 1.1959 1.7144 0 1.7144z"/>
  <path d="m36.492 2.3723h-1.725l-2.614 7.4928h2.0319l0.46565-1.5028h2.0002l0.48682 1.5028h2.0319zm-1.4181 4.3073 0.55032-2.1907h0.05291l0.51857 2.1907z"/>
 </g>
</svg>
