<svg width="114.21mm" height="37.042mm" version="1.1" viewBox="0 0 114.21 37.042" xmlns="http://www.w3.org/2000/svg">
	<g transform="translate(-59.989 -30.149)">
		<rect x="59.989" y="30.149" width="114.21" height="37.042" ry="9.0714" fill="#2a7fff" stroke-width=".3144"/>
		<g fill="#fff" stroke-width=".26458" aria-label="BICARA">
			<path d="m77.525 46.801q1.0032 0 1.5214-0.44097 0.51814-0.44097 0.51814-1.3009 0-0.84887-0.51814-1.2898-0.51814-0.452-1.5214-0.452h-2.3482v3.4837zm0.14332 7.1989q1.2788 0 1.9182-0.54019 0.65043-0.54019 0.65043-1.6316 0-1.0694-0.63941-1.5985-0.63941-0.54019-1.9293-0.54019h-2.4915v4.3105zm3.9467-5.9201q1.367 0.39688 2.1167 1.4662 0.74965 1.0694 0.74965 2.6238 0 2.3812-1.6095 3.5498-1.6095 1.1686-4.8948 1.1686h-7.0445v-16.459h6.372q3.4286 0 4.9609 1.0363 1.5434 1.0363 1.5434 3.3183 0 1.2016-0.56224 2.0505-0.56224 0.83785-1.6316 1.2457z"/>
			<path d="m88.13 40.429h4.2444v16.459h-4.2444z"/>
			<path d="m109.61 55.984q-1.1686 0.60634-2.4364 0.91502-1.2678 0.30868-2.6458 0.30868-4.1121 0-6.5154-2.2931-2.4033-2.3041-2.4033-6.2398 0-3.9467 2.4033-6.2398 2.4033-2.3041 6.5154-2.3041 1.378 0 2.6458 0.30868 1.2678 0.30868 2.4364 0.91502v3.4065q-1.1796-0.80478-2.3261-1.1796-1.1465-0.37483-2.4143-0.37483-2.271 0-3.5719 1.4552-1.3009 1.4552-1.3009 4.0128 0 2.5466 1.3009 4.0018 1.3009 1.4552 3.5719 1.4552 1.2678 0 2.4143-0.37483t2.3261-1.1796z"/>
			<path d="m123.12 53.89h-6.6366l-1.0473 2.9986h-4.2664l6.0964-16.459h5.0602l6.0964 16.459h-4.2664zm-5.5783-3.0537h4.5089l-2.249-6.5484z"/>
			<path d="m136.63 47.727q1.3339 0 1.9072-0.49609 0.58429-0.49609 0.58429-1.6316 0-1.1245-0.58429-1.6095-0.57326-0.48507-1.9072-0.48507h-1.7859v4.2223zm-1.7859 2.9325v6.2287h-4.2444v-16.459h6.4823q3.2522 0 4.7625 1.0914 1.5214 1.0914 1.5214 3.4506 0 1.6316-0.79375 2.6789-0.78273 1.0473-2.3702 1.5434 0.87092 0.19844 1.5544 0.90399 0.69453 0.69453 1.4001 2.1167l2.3041 4.6743h-4.52l-2.0064-4.09q-0.60634-1.2347-1.2347-1.6867-0.61736-0.452-1.6536-0.452z"/>
			<path d="m157.96 53.89h-6.6366l-1.0473 2.9986h-4.2664l6.0964-16.459h5.0602l6.0964 16.459h-4.2664zm-5.5783-3.0537h4.5089l-2.249-6.5484z"/>
		</g>
	</g>
</svg>
