<svg version="1.1" viewBox="0 0 120 92.066" xmlns="http://www.w3.org/2000/svg">
 <g transform="matrix(1.48 0 0 1.48 -28.798 -42.765)" fill="#06f" aria-label="BI">
  <path d="m44.375 52.979q3.7917 0 5.75-1.6667t1.9583-4.9166q0-3.2083-1.9583-4.875-1.9583-1.7083-5.75-1.7083h-8.875v13.167zm0.54166 27.208q4.8333 0 7.25-2.0417 2.4583-2.0417 2.4583-6.1666 0-4.0417-2.4167-6.0416-2.4167-2.0417-7.2916-2.0417h-9.4166v16.292zm14.917-22.375q5.1666 1.5 8 5.5416t2.8333 9.9166q0 9-6.0833 13.417-6.0833 4.4166-18.5 4.4166h-26.625v-62.208h24.083q12.958 0 18.75 3.9167 5.8333 3.9167 5.8333 12.542 0 4.5416-2.125 7.75-2.125 3.1667-6.1666 4.7083z"/>
  <path d="m84.5 28.896h16.042v62.208h-16.042z"/>
 </g>
</svg>
