<svg width="12.094mm" height="12.082mm" version="1.1" viewBox="0 0 12.094 12.082" xmlns="http://www.w3.org/2000/svg">
 <g transform="rotate(-45 -2.259 -30.281)">
  <path d="m-22.075-7.0152-0.63741 0.63741 4.4619 4.4619 0.63741-0.63741zm5.0993 5.0993-0.63741 0.63742 1.2748 1.2748-0.63742 0.63741-2.5497-2.5497-0.63741 0.63741 3.1871 3.1871 1.9122-1.9122zm2.1997 2.8997a0.45289 0.45289 0 0 0 0.06259 0.63741 0.45289 0.45289 0 0 0 0.63742-0.062587 0.45289 0.45289 0 0 0-0.06259-0.63741 0.45289 0.45289 0 0 0-0.63741 0.062587zm-8.5738-6.7241-5.7367 5.7367 3.1871 3.1871 3.1871-3.1871-2.5497-2.5497 0.63742-0.63741 2.5497 2.5497 1.9122-1.9122-1.9122-1.9122-0.63741 0.63741 1.2748 1.2748-0.63742 0.63741-1.9122-1.9122 1.2748-1.2748zm7.2471 8.0509a0.46582 0.46582 0 0 0 0.16639 0.63741 0.46582 0.46582 0 0 0 0.63742-0.16639 0.46582 0.46582 0 0 0-0.16639-0.63741 0.46582 0.46582 0 0 0-0.63741 0.16639zm-4.6974-2.9516-1.9122 1.9122 4.4619 4.4619 1.9122-1.9122-0.63742-0.63742-1.2748 1.2748-3.1871-3.1871 1.2748-1.2748zm0.79278 1.7569a0.50647 0.50647 0 0 0 0.32668 0.63741 0.50647 0.50647 0 0 0 0.63741-0.32668 0.50647 0.50647 0 0 0-0.32668-0.63741 0.50647 0.50647 0 0 0-0.63742 0.32668zm1.37 1.1796a0.46091 0.46091 0 0 0 0.13631 0.63741 0.46091 0.46091 0 0 0 0.63742-0.13631 0.46091 0.46091 0 0 0-0.13631-0.63742 0.46091 0.46091 0 0 0-0.63742 0.13631zm-7.2621-4.2113 0.63741 0.63741-0.63741 0.63742-0.63741-0.63742zm1.2748 1.2748 0.63741 0.63741-1.9122 1.9122-1.9122-1.9122 0.63741-0.63741 1.2748 1.2748 0.63741-0.63741zm1.2748 2.5497-2.5497 2.5497-3.8245-3.8245-0.63742 0.63741 4.4619 4.4619 3.1871-3.1871zm1.2748 1.2748-1.9122 1.9122 1.2748 1.2748-0.63742 0.63741-1.2748-1.2748-0.63742 0.63741 3.1871 3.1871 1.9122-1.9122-0.63741-0.63741-1.2748 1.2748-0.63741-0.63741 2.5497-2.5497zm2.1804 2.9189a0.45636 0.45636 0 0 0 0.10112 0.63741 0.45636 0.45636 0 0 0 0.63742-0.10112 0.45636 0.45636 0 0 0-0.10112-0.63741 0.45636 0.45636 0 0 0-0.63741 0.10112zm-2.1804-1.6441 0.63741 0.63741-0.63741 0.63741-0.63741-0.63741z" fill="#3b82f6" fill-rule="evenodd" stroke="#3b82f6" stroke-linecap="round" stroke-linejoin="round" stroke-width=".36058" style="paint-order:markers fill stroke"/>
 </g>
</svg>
